<svg width="24" height="24" viewBox="0 0 24 24" fill="none" xmlns="http://www.w3.org/2000/svg">
<path d="M19.3981 11.11C19.3278 10.9835 19.2992 10.932 19.2803 10.8981C19.066 10.9272 19.35 11.3396 19.0148 11.2453C18.8966 11.3941 18.7685 11.5361 18.6313 11.6702C18.3287 11.9324 18.0187 12.1888 17.6944 12.4271C17.5673 12.5205 17.3924 12.5571 17.2415 12.6239C17.1879 12.6476 17.1163 12.6735 17.0946 12.7165C16.7971 13.3078 16.2526 13.6631 15.7008 14.0229C15.128 14.3963 14.6081 14.8455 14.0125 15.1812C13.5101 15.4644 12.9784 15.7819 12.3129 15.447C11.9772 15.278 11.8059 14.8315 12.0616 14.5617C12.1471 14.47 12.2157 14.3658 12.2648 14.2533C12.7099 13.2431 13.158 12.2338 13.5867 11.2175C13.959 10.3348 14.2881 9.436 14.673 8.55816C14.9216 7.99095 15.3563 7.53359 15.8451 7.12579C16.1405 6.86872 16.4592 6.63581 16.7977 6.42966L16.5996 6.72048L16.6458 6.76708C16.8456 6.59415 17.0454 6.42122 17.2453 6.24829L17.2051 6.18478C17.1163 6.21148 17.0274 6.23817 16.9386 6.26487L16.8929 6.22089C16.9773 6.11775 17.0716 6.022 17.1747 5.93483C18.2105 5.20173 19.2493 4.47222 20.291 3.74629C20.4283 3.65016 20.5798 3.56962 20.7073 3.4637C20.9464 3.26492 21.4247 3.10361 21.5869 3.21903C21.8556 3.41025 22.0572 3.6584 21.9853 4.00154C21.9036 4.39193 21.845 4.79402 21.6957 5.16292C21.4685 5.72478 21.3918 6.32384 21.1519 6.87895C21.1134 6.96802 21.0348 7.0421 20.996 7.13109C20.9608 7.22096 20.937 7.31433 20.9249 7.40931C20.8928 7.60561 20.8837 7.80631 20.8362 7.99902C20.7758 8.24253 20.6996 8.48242 20.6081 8.7174C20.4182 9.20633 20.2171 9.6916 20.0113 10.175C19.9895 10.2262 19.9033 10.2517 19.8523 10.2946C19.8035 10.3356 19.7141 10.3988 19.7242 10.4264C19.8431 10.7518 19.4006 10.785 19.3981 11.11ZM19.5 9.41586C19.4236 9.53126 19.2064 9.43281 19.1727 9.63534C19.1267 9.81522 19.0641 9.99107 18.9855 10.1609C19.3406 10.0311 19.3823 9.7017 19.5 9.41586ZM17.6352 5.74455L17.6856 5.81951C18.0136 5.57889 18.3415 5.33828 18.6695 5.09767C18.6501 5.07409 18.6307 5.05052 18.6113 5.02695C18.286 5.26615 17.9606 5.50535 17.6352 5.74455ZM15.5689 7.61916C15.5947 7.64323 15.6205 7.66729 15.6463 7.69135C15.8556 7.49269 16.0649 7.29404 16.2742 7.09538L16.22 7.04472L15.5689 7.61916Z" fill="#DA3C6E"/>
<path d="M7.16112 13.3681C6.96366 12.8606 7.07499 12.063 7.38036 11.8586C7.2915 11.8542 7.21367 11.8504 7.12879 11.8463C7.11672 11.8222 7.10853 11.7965 7.10454 11.7702C7.12961 10.9037 7.14617 10.0369 7.18575 9.17092C7.21806 8.46434 7.2769 7.75878 7.32621 7.05291C7.40193 5.9689 7.91692 5.06082 8.62869 4.22821C9.63728 3.04836 10.6413 1.86574 11.8256 0.828145C12.0883 0.597925 12.3225 0.339817 12.5778 0.1019C12.7138 -0.0248289 12.8273 -0.0450561 13.0039 0.108268C13.2945 0.360564 13.3212 0.658337 13.286 0.978132C13.1505 2.21114 12.9992 3.44265 12.8658 4.67585C12.7849 5.42411 12.7359 6.17541 12.6508 6.92321C12.6273 7.12886 12.5137 7.32426 12.463 7.52898C12.4105 7.74112 12.3969 7.96159 12.3442 8.17368C12.0997 9.15783 11.4777 9.93749 10.7659 10.668C10.1929 11.2561 9.6334 11.8557 9.04889 12.4337C8.75207 12.7408 8.42213 13.0189 8.06425 13.2634C7.90122 13.3693 7.62177 13.3201 7.39523 13.3419C7.32472 13.3487 7.25446 13.3576 7.16112 13.3681ZM11.6503 8.00134L11.5316 7.94134C11.3476 8.2879 11.1635 8.63447 10.9795 8.98103L11.0648 9.02286C11.2599 8.68236 11.4551 8.34185 11.6503 8.00134Z" fill="#DA3C6E"/>
<path d="M21.4258 14.9608C21.3498 15.3762 21.2421 15.8884 21.165 16.4045C21.0714 17.0316 20.9817 17.6606 20.9328 18.2915C20.9109 18.6291 20.7622 18.9487 20.5127 19.1948C20.0478 19.6665 19.5336 20.0992 19.0993 20.5933C18.6146 21.1446 17.985 21.5215 17.4018 21.9565C16.7667 22.4303 16.1346 22.9076 15.4924 23.3729C15.2633 23.5389 15.0077 23.6733 14.7656 23.824C14.3424 24.0875 13.8824 23.9976 13.4352 23.9208C13.3416 23.9047 13.2225 23.7428 13.2125 23.6398C13.1975 23.4444 13.2183 23.2481 13.2741 23.0592C13.6284 21.7941 14.0032 20.5339 14.3525 19.2677C14.5155 18.628 14.854 18.0384 15.3351 17.5563C16.2248 16.6804 17.1 15.791 18.0149 14.9382C18.6192 14.3749 19.3432 13.9458 20.0883 13.5534C20.6717 13.2462 21.299 13.5349 21.3781 14.1565C21.4074 14.3873 21.4068 14.6214 21.4258 14.9608Z" fill="#DA3C6E"/>
<path d="M5.5929 17.8839C5.8352 17.4911 6.02045 17.053 6.33122 16.7145C7.05937 15.9213 7.83394 15.1634 8.6165 14.4154C9.12391 13.9305 9.67595 13.4855 10.2157 13.0305C10.2504 13.0037 10.2911 12.9844 10.3347 12.9738C10.3784 12.9633 10.424 12.9619 10.4683 12.9696C10.7025 13.0439 10.9928 13.115 10.9902 13.4009C10.9856 13.9074 10.9382 14.4138 10.8993 14.9196C10.8617 15.4099 10.8142 15.8995 10.7677 16.3891C10.6922 17.1847 10.5614 17.9763 10.1289 18.6754C9.92181 19.0101 9.587 19.2787 9.29841 19.5672C8.99365 19.8718 8.68433 20.1736 8.35954 20.4595C8.10449 20.684 7.82176 20.8812 7.55337 21.0928C7.33353 21.2528 7.12301 21.4235 6.92272 21.6043C6.41553 22.1192 5.81836 22.5508 5.1564 22.8807C5.01324 22.9493 4.36935 22.8758 4.27631 22.7702C4.10721 22.5782 4.17998 22.3762 4.24606 22.1614C4.42538 21.5786 4.57797 20.9887 4.7455 20.4027C4.95686 19.6633 5.16786 18.9238 5.3914 18.1876C5.4441 18.0769 5.51338 17.9737 5.59715 17.881C5.63461 17.9265 5.67071 17.973 5.71949 18.036C5.9206 17.7217 6.11287 17.4213 6.30513 17.1208C6.27678 17.1048 6.24844 17.0887 6.2201 17.0727C6.15073 17.1682 6.08422 17.2657 6.01143 17.3589C5.87383 17.5352 5.73261 17.7091 5.5929 17.8839ZM6.33024 16.9041L6.42541 16.9911C6.63104 16.7629 6.83665 16.5347 7.04227 16.3064L7.0795 16.3428C6.82975 16.5299 6.57999 16.717 6.33024 16.9041ZM8.74086 19.1658L8.79461 19.2026C9.03725 18.9641 9.27988 18.7256 9.52251 18.4871C9.50547 18.4723 9.48844 18.4575 9.47141 18.4426C9.2279 18.6837 8.98438 18.9248 8.74086 19.1658ZM9.60619 17.9352L9.48726 17.8752C9.38946 18.0274 9.29164 18.1797 9.19383 18.332C9.22598 18.3494 9.25813 18.3667 9.29027 18.3841C9.39557 18.2345 9.50088 18.0848 9.60619 17.9352Z" fill="#DA3C6E"/>
<path d="M0 17.7426C0.130129 16.8472 0.245688 16.0611 0.358016 15.2746C0.4029 14.9603 0.453931 14.6461 0.479112 14.3303C0.545422 13.4988 1.07976 12.9098 1.63719 12.3222C2.03988 11.8977 2.39862 11.4374 2.79638 11.0085C3.27736 10.49 3.7672 9.97749 4.27835 9.48491C4.4362 9.33279 4.64857 9.20702 4.93074 9.31758C5.26091 9.44697 5.51503 9.62122 5.5204 9.9778C5.53019 10.6274 5.54632 11.2785 5.51021 11.9265C5.49207 12.252 5.34258 12.5692 5.29335 12.8955C5.24445 13.2197 5.2601 13.5518 5.22219 13.8779C5.20824 14.1147 5.15546 14.3482 5.06565 14.5702C4.93896 14.832 4.77111 15.075 4.56761 15.291C4.23672 15.6417 3.86701 15.9609 3.51227 16.2921C3.01356 16.7578 2.53551 17.2428 1.91688 17.5845C1.71491 17.696 1.56056 17.8795 1.37139 18.0142C1.0283 18.2586 0.633864 18.1881 0.274744 18.0869C0.136134 18.0478 0.058736 17.8213 0 17.7426ZM2.37201 11.8731C2.34719 11.8555 2.32237 11.8378 2.29755 11.8201C2.04157 12.1071 1.78559 12.3941 1.52961 12.6811L1.59523 12.7299C1.85415 12.4443 2.11308 12.1587 2.37201 11.8731ZM3.40329 13.0951L3.32788 13.0667L2.95386 13.9439L3.025 13.9691C3.1511 13.6778 3.27719 13.3864 3.40329 13.0951Z" fill="#DA3C6E"/>
</svg>
